<svg width="92" height="124" viewBox="0 0 92 124" fill="none" xmlns="http://www.w3.org/2000/svg">
<path d="M50.1727 123.392C51.4616 117.624 47.5651 113.552 45.3119 108.982C45.0364 108.415 43.6056 108.428 42.5034 108.11L40.8287 102.445L38.0999 104.305C37.1107 101.539 36.5866 101.696 31.4865 106.686C33.2107 99.1578 32.7151 97.8146 28.3881 98.0333C26.8421 96.303 30.9758 93.8786 27.6243 92.3418C23.9759 90.6774 24.0285 94.8501 21.5377 95.6263C22.5961 93.3728 23.6549 91.0993 24.7128 88.8657C25.5182 87.5903 26.2566 86.2737 26.925 84.9214C27.2788 84.0002 27.4904 82.3851 27.0022 81.9224C25.8301 80.8218 24.431 79.6054 22.4345 80.9945C19.8448 82.8098 16.9958 84.2237 13.9838 85.1884C16.4712 82.9917 19.0954 80.9186 21.3669 78.5562C22.2824 77.5795 22.5225 76.0251 23.066 74.7287L18.9874 74.6237C20.0128 73.6498 21.1081 72.6776 22.2435 71.7065C22.6521 71.3769 23.4811 71.4283 23.7208 71.0543C26.6282 66.5276 30.3303 62.2215 32.0784 57.2648C33.5701 52.9418 30.0699 48.6303 25.6321 46.5454C22.4594 45.0532 24.4073 42.0524 23.8054 39.7861C23.7089 38.6594 23.7854 37.5245 24.0321 36.4209C18.2004 36.8009 16.1209 41.4189 12.8713 44.8565C14.1754 40.8287 19.8382 37.2932 13.3682 33.7156L1.90788 28.1388L0.664387 18.5436C1.98565 16.9571 3.8499 14.4842 5.98686 12.2985C6.64466 11.6152 8.07342 11.682 9.14156 11.3794C10.1946 11.0071 11.28 10.7336 12.3837 10.5625C13.4459 10.4898 15.4411 10.7013 15.4744 10.9622C15.8329 14.1325 18.0263 14.0289 19.6822 13.8214C20.6252 16.0464 21.0812 18.9291 22.4374 19.4842C23.7936 20.0393 26.3985 18.7159 28.027 17.6274C28.8419 17.0582 28.7117 15.1242 28.9145 14.2391L47.922 0.203612L48.4454 0.467167L46.9312 3.32915L47.2074 4.25657C50.7307 3.39696 54.2537 2.54732 57.3943 1.78788C57.7585 2.79759 57.8391 4.33018 58.5203 4.67783C61.6696 6.29941 64.5893 5.18416 67.162 3.1697L69.6889 7.59617L68.6432 9.35986C70.1348 9.31822 71.1358 9.29399 72.1365 9.27974C70.5159 12.3891 71.796 15.1229 76.3137 17.9901C74.4054 20.2317 75.4541 21.069 77.9023 21.5622C81.186 22.2369 82.1337 24.6721 80.1669 27.2423C78.2001 29.8126 79.3144 31.6018 80.8403 33.7218C81.9292 35.5165 82.9266 37.3651 83.8288 39.2605C84.4613 40.3372 85.3069 41.2992 86.0209 42.3179C86.7349 43.3367 87.2908 44.2813 87.9453 45.2785L86.9248 46.0625L83.9834 43.746C83.1307 43.0638 82.2919 41.8418 81.4319 41.8297C79.9824 41.7924 78.5318 42.5753 77.0802 43.0081C77.858 43.8784 78.4661 45.1245 79.4348 45.5795C83.4684 47.434 87.6081 49.051 91.5076 51.4522C89.2728 50.8345 86.9849 50.3354 84.8244 49.5496C82.1994 48.5417 80.5225 49.1788 79.8722 51.9029C79.2182 54.3301 78.6973 56.7912 78.3119 59.2752C78.0434 60.8827 78.1586 62.5309 78.6483 64.0855C79.7907 67.1159 81.4993 69.9107 82.7032 72.8827C82.9854 73.5802 82.3588 74.6044 82.3664 75.4749C82.3361 76.6545 82.1255 78.2296 82.7675 78.9364C87.4749 84.1492 88.527 88.3577 85.602 93.5642C89.7303 95.2409 89.9954 98.929 90.2587 103.467C89.3 102.015 88.2173 100.648 87.0227 99.3826C86.0848 98.5871 84.9137 98.1181 83.686 98.0463C83.2262 98.0345 82.7423 99.7326 81.4452 100.77C81.4975 99.2159 81.444 97.6603 81.285 96.1139C80.9977 95.2741 80.5602 94.4934 79.9938 93.8099C78.595 94.7482 77.2587 95.7763 75.9933 96.888C75.4909 97.3652 75.7768 98.693 75.2748 99.1502C71.4042 102.622 72.9131 106.572 73.9805 110.571C74.3938 112.5 74.6975 114.452 74.8904 116.416C73.2876 116.115 71.904 115.849 70.5001 115.593C67.0344 107.221 66.5664 106.749 63.2796 108.525L60.4991 104.622C59.7628 106.023 58.8582 106.97 58.8432 107.94C58.7931 109.89 57.861 110.346 56.1997 110.373C51.986 110.465 49.9415 113.333 50.7423 117.585C51.0933 119.495 53.0571 121.706 50.164 123.342L50.1727 123.392ZM27.9933 19.3271C25.9136 20.1099 23.8854 21.0233 21.9209 22.0618C21.5146 22.3014 21.5826 23.9337 21.9434 24.6832C22.2092 25.2403 23.613 25.8866 23.9791 25.6559C26.0229 24.3681 28.6578 23.4356 27.9933 19.3271Z" fill="#000C24"/>
</svg>
